<svg xmlns="http://www.w3.org/2000/svg" viewBox="0 0 841.89 595.28"><title>Leuchtturmrakede</title><path d="M436.74,332.09l3-7.46,1.69,2.42c0.33,1.78.07,4.11,1.11,5.23,2,2.14,15.8.77,17.85-1.41A3,3,0,0,0,461,329c0.06-5.25.39-10.53-.06-15.74-0.29-3.33-2.06-.85-3.2-0.17l3.56-12.55,0.58-1-0.5,1.09a30.81,30.81,0,0,0-1.13-4.89c-0.38-1-1.43-1.66-2.19-2.47-1.2-1.58-2.31-4.17-4.11-.52-1,2-1.86,4.17-2.78,6.26l-8.25,10.47-0.84-1a9.19,9.19,0,0,1,.06-2.11c0.64-2.49,4.71-4.09,1.82-7.5s-4.77-7.9-10.66-6.86c-3.85.68-7.78,0.88-11.65,1.56-6.19,1.08-12.94-1-19.42-2-0.62-.09-0.85-1.91-1.52-2.69a16.25,16.25,0,0,0-4-3.81c-1.27-.7-3-0.5-4.59-0.7l4-1.74a1.41,1.41,0,0,0,.62-0.27,6,6,0,0,0,.21-1.73c-5.2-1.5,4-7.85-3.29-9.15-5.13-.91-5.91-4.64-1.76-8.06s5.65-6.67,3.36-11.75c-0.68-1.51.12-3.69,0.23-5.56,0.34-6,.88-11.92-1.44-17.73-0.55-1.37-.71-3.91.09-4.62,4.11-3.62,2.56-8.49,3.42-12.81l0.57-.43a16.41,16.41,0,0,1,1.2,3.91c0.13,2.43,1,3.13,3.54,3.09,12.42-.2,24.87-0.54,37.27,0,10.91,0.49,10.71,1,10.93-10.13,0.3-15,.92-30,1.38-45,0.31-10-.2-10.92-10.18-12.6a64.44,64.44,0,0,0-14.35-.73c-7.82.46-15.59,1.74-23.42,2.27-4.67.32-5.26,2.81-5.06,6.66,0.23,4.55.12,9.13,0,13.7a21.08,21.08,0,0,1-1.09,4.39,39.08,39.08,0,0,1-.74-4c-0.16-1.91-.09-3.84-0.2-5.76-0.49-8.45-.5-8.43-8.8-10.29-2.46-.55-4-1.49-4.42-4.62-0.67-5.37-2.3-10.6,3.18-14.61,0.37-.27-3.15-2.24.27-3.22,2-.57,3.89-1.33,5.84-2a30.4,30.4,0,0,1-5.22-2.49c-1-.74-2.31-2.4-2.1-3.35,1.07-4.83-2.06-4.24-4.93-4.26-4.08,0-8.17-.12-12.25-0.19V99.79c2.19-.11,4.38-0.36,6.56-0.3,4.21,0.13,8.42.66,12.6,0.49,1,0,2.84-2.27,2.71-3.29-0.37-2.87-1.9-5.59-2.35-8.46-0.62-3.87-2.32-10-.63-11.32,4-3,4.1-6.2,4.5-10.16,0.16-1.58,1.78-3,2.73-4.51,0.66,1.55,1.64,3,1.92,4.65,0.75,4.35,2.41,5.81,6.68,5.29,5.45-.66,10.88-1.72,16.35-1.93,5.12-.2,6.63-2.72,6.5-7.3-0.1-3.59.1-7.2,0.17-10.8h2.89c0,4.31.27,8.63,0,12.92s1.29,5.9,5.68,6.07a42.59,42.59,0,0,1,22.94,7.32c5,3.45,5.15,5.1-.19,7.88-4.9,2.54-3.23,6.27-2.85,9.88,0,0.4,1.59.55,2.35,1,2.34,1.34,4.63,2.77,6.94,4.16-0.93,0-1.86-.06-2.79,0-0.76,0-1.51.19-2.27,0.3a7.3,7.3,0,0,0,2.46.66,8.51,8.51,0,0,0,2.47-1.07c2.64,1.53,4.56,3.1,3.23,6.84-0.59,1.67.81,3.95,0.81,6,0,1.5-.78,3-1.22,4.49-0.68-.33-1.4-1-2-0.92a50.65,50.65,0,0,0-5.2,1l1.59-2-1-.29L460,118.73c-0.56.43-1.66,1-1.59,1.28,0.73,3.69,1.51,7.38,2.58,11,0.34,1.15,1.61,2,2.45,3,0.67-1.23,1.68-2.39,1.93-3.69,0.78-4,1.26-8,1.86-12,0.05,10.83.42,21.62,2.61,32.29,0.18,0.87-1.25,2.44-2.3,3.09a29.42,29.42,0,0,1-6.41,3c-6.89,2.24-6.86,2.17-6.88,9.7-0.06,17-.63,34.11-0.06,51.14,0.23,6.81,1.16,13.56.08,20.37-0.45,2.86.69,4.09,3.63,3,1.35-.51,2.72-1.5,4-1.42,1.69,0.1,3.32,1.06,5,1.65-0.68,1.6-1,3.47-2.12,4.7s-2.91,1.61-4.32,2.53c-1.93,1.25-3.77,2.64-5.65,4,2.15,2,4,4.67,6.5,5.95,5.75,2.91,6.08,4.13,1,8.56-2.66,2.33-2.64,9.39.12,11.61,0.16,0.13,1.12-1,1.81-1.24,1.43-.5,2.93-0.79,4.4-1.17a26.35,26.35,0,0,1-.05,4.26c-0.22,1.35-1.1,2.61-1.28,4-0.63,4.58-1.11,9.19-1.6,13.79s-1.3,9.3-1.35,14c-0.2,17.3-.19,34.6-0.14,51.91a13.87,13.87,0,0,0,1.25,5.41c8.5,19.15,9.07,39,5.28,59.21a58.8,58.8,0,0,1-2.27,9.73c-0.82,2.19.17,6.28-4.51,5.75-0.23,0-.8,2.33-1.1,3.6-1.91,7.88-3.46,15.86-5.85,23.59-1,3.11-3.78,5.64-5.72,8.45-0.51.74-1.27,1.57-1.26,2.35,0.09,9.39-6.27,16.24-9.57,24.26-5.54,13.46-11.76,26.64-17.66,40-0.48,1.08-.55,2.34-1.05,3.41a5.42,5.42,0,0,1-1.59,1.39,7.29,7.29,0,0,1-1.08-1.71c-1.14-3.9-1.94-7.91-3.32-11.71-5.09-14-10.21-27.91-15.63-41.74-4.65-11.85-9.68-23.55-14.63-35.28-2.85-6.75-6.94-13.17-8.61-20.18-4.56-19.22-7.64-38.68-.09-58,1.71-4.38,3.67-8.68,5.68-12.94,1.67-3.54,3.43-6.84.37-10.68-0.8-1-.34-3.12-0.24-4.71s0.5-3.29.67-4.95c0.39-3.76.56-7.55,1.1-11.29s6.28-3.32,6.87-7.86c0.18-1.37,4.14-1.66,4.78,1.18,0.86,3.79,2.58,3.79,5.68,2.67,1.95-.71,4.33-0.13,6.38-0.65a9.51,9.51,0,0,0,4.24-2.52c3.26-3.35,4.35-3.21,6.32,1.08a6,6,0,0,0,1.76,1.53,13.73,13.73,0,0,0,1.74-2.61,18.65,18.65,0,0,0,.67-3.44,26.61,26.61,0,0,1,1,3.51c0.69,4.54,4.62,3.27,6,2.06,2.52-2.27,4.72-.92,7.08-0.88l0.49,1.12,0.62-.49Zm25.95-194.71-1.19-1.17-0.53.67,1.84,0.36a11.47,11.47,0,0,0,.92.82,0.89,0.89,0,0,0,.45-0.12ZM426.57,500.91l0.69-.8-0.55.94-1.65,0c-1-8.28,7.23-12.56,8.59-19.88,0.34-1.82,2.43-3.28,2.89-5.11,3.93-15.6,7.64-31.24,11.52-46.85a3.23,3.23,0,0,1,2-2.1c0.84-.11,1.95.72,2.7,1.4,0.45,0.41.4,1.34,0.68,2,0.51,1.2,1.09,2.36,1.64,3.54A18.15,18.15,0,0,0,456.2,430c0.22-7.66.25-15.32,0.46-23a18.43,18.43,0,0,1,1-3.93,25.63,25.63,0,0,1,3.27,2.54,17,17,0,0,1,1.89,3,5.57,5.57,0,0,0-.52.48,2.49,2.49,0,0,0-.25.46l0.66-1.05c0.76-6.25,3-12.79,1.81-18.64-0.89-4.38-2.83-8.49-2.7-13.33,0.06-2.42-1.67-6.65-3.31-7a63.58,63.58,0,0,0-17.21-1.69c-15.52.64-31,1.39-46.44-1.19-1.9-.32-5.3.63-6,2-2.77,5.58-6.81,10.86-5.72,17.8a67.88,67.88,0,0,1,.32,9.31,19.34,19.34,0,0,1-.25,2.42,14.58,14.58,0,0,1,1.65-2.09,24.63,24.63,0,0,1,2.65-1.84l0.23,2.86c-3.5,6.7.12,13,1.23,19.37a4.67,4.67,0,0,0,.89,1.43c0.13-.69.31-1.38,0.38-2.08,0.11-.95.14-1.9,0.21-2.85,3,10,6.19,19.88,9,29.88,0.83,2.91.83,6.07,1.2,9.11l-0.59,2,0.47-2.07c1.61,2.8,5,5.3,1.47,8.94-0.1-.18-0.19-0.37-0.31-0.54s-0.26-.33-0.39-0.49l0.81,0.92a3.87,3.87,0,0,0,0,1.35c4.81,1.73,4.6,6.82,6.86,10.23,0.27,0.4-.13,1.24-0.22,1.88a4.42,4.42,0,0,1-1.84-.53,21.24,21.24,0,0,1-2.09-2.7l-0.67-2.4a1.1,1.1,0,0,0-.22.53c0.3,0.61.67,1.18,1,1.77,2.67,11.67,6.07,23,14.67,32l-0.13-.11L423.1,508a35.74,35.74,0,0,1,.45-5c0.17-.77,1.07-1.38,1.65-2.06l1,1.29Zm-43-381.26c3.87-.76,8.07-1.52,12.22-2.51,0.44-.1.53-1.62,0.79-2.48-3.87-.17-9.7-2-11.2-0.18-3.18,3.82-6.42,1.9-9.6,2.49-0.91.17-1.79,0.45-2.68,0.68a8.61,8.61,0,0,0,2.26,1.07C378,119.1,380.54,119.32,383.61,119.65Zm10.7,34.84c0.92-.86,2.24-2.08,3.51-3.33a19.44,19.44,0,0,0,1.34-1.61c-1.54.06-3.09,0.11-4.63,0.2a9.59,9.59,0,0,0-2.11.29c-1.74.51-3.45,1.1-5.18,1.66l5.24,2.07Zm-13.07-48.72c-4.27.05-6.08,2.2-4.63,5.18,0.41,0.85,2.22,1.47,3.33,1.4s2.46-1.08,3.68-1.68a29.71,29.71,0,0,1-3.24-.95,12.83,12.83,0,0,1-2.09-1.36A13.48,13.48,0,0,1,380.4,107a16.21,16.21,0,0,1,2.62-.68Zm79,44.65c-2.61.35-5.9-.88-4.85,3.08,0.15,0.57,3.66.59,5.5,0.26,1-.19,1.85-1.62,2.76-2.5Zm-85.77-43.35-1-3.52c-0.49,1.63-1,3.26-1.46,4.9a2.4,2.4,0,0,0,0,1.39c0.4,1.06.92,2.08,1.4,3.12,0.35-1,.74-2,1-3.1A17,17,0,0,0,374.47,107.08Zm84.15,21.55-1.44-4.27c-0.57,1.35-1.55,2.69-1.6,4.06s0.9,2.63,1.41,3.94Zm-6.21-7.05,3-3.55c-0.52-.23-1.34-0.79-1.5-0.64a15.7,15.7,0,0,0-2.3,2.73A4.36,4.36,0,0,0,452.41,121.58ZM419.1,143.11l4.36-.67a21.45,21.45,0,0,0-3.64-.69,29.85,29.85,0,0,0-4.15.44Zm0-43.23,3.25-.73a7,7,0,0,0-1.89-.57,34.08,34.08,0,0,0-3.5.29Zm29.49,197.29c0.68-1.11,1.35-1.75,1.4-2.43a1.89,1.89,0,0,0-1.3-1.36,4.54,4.54,0,0,0-1.9.92ZM380.24,104.12l2.79-1a16.08,16.08,0,0,0-2.74-.36,15.51,15.51,0,0,0-2.67.54Zm85.08,41.41a41.34,41.34,0,0,0-4.08-1.45,4.16,4.16,0,0,0-.92,1.28,18.09,18.09,0,0,0,2.94,1.64C463.58,147.11,464.22,146.34,465.32,145.53Zm-21.89,74.05-1.79,1.33a2.61,2.61,0,0,0,1.19.46,20.73,20.73,0,0,0,2.59-1ZM392.8,144.82c-1-.68-1.49-1.27-2.07-1.35-0.34,0-.79.75-1.18,1.17a4.73,4.73,0,0,0,1.52,1C391.48,145.71,392,145.22,392.8,144.82Zm28.34-63,1.36-1.46a5.15,5.15,0,0,0-1.87-.5,3.48,3.48,0,0,0-1.29,1.06Zm29.35,53.67a3.42,3.42,0,0,0-.78-1.24,14.61,14.61,0,0,0-2.4.35,1.93,1.93,0,0,0,.53.85A23.14,23.14,0,0,0,450.49,135.44Zm8.95,150.19a10.15,10.15,0,0,0-1.6-.74,2,2,0,0,0-.51,1,7.17,7.17,0,0,0,1.41,1Zm3.74-144.82a13,13,0,0,0-1.85-1.07,2.26,2.26,0,0,0-1.07.24,17.05,17.05,0,0,0,1.9,1.35A2.44,2.44,0,0,0,463.18,140.81ZM400.8,254.06l-1.46,1.72a2.64,2.64,0,0,0,.94.62,21.88,21.88,0,0,0,2.12-1.58ZM435,364.3l-0.4-1.29a2.86,2.86,0,0,0-1.17.48,4,4,0,0,0,.42,1.44Zm-6.19-222.46-1.16.49a3.38,3.38,0,0,0,1.15.45,3.43,3.43,0,0,0,1.15-.45Zm32.13-32.57a3.79,3.79,0,0,0,.67,1.14,2.07,2.07,0,0,0,1-.3A0.93,0.93,0,0,0,460.9,109.27Zm-69.45-.13a7.73,7.73,0,0,0-1.26-.23,1.24,1.24,0,0,0-.5.4,2.88,2.88,0,0,0,.74.71A4.64,4.64,0,0,0,391.45,109.14ZM448.9,221.69a3.09,3.09,0,0,0,.75,1.06,2.14,2.14,0,0,0,1.1-.22,2.27,2.27,0,0,0-.56-1.06A2.78,2.78,0,0,0,448.9,221.69ZM398.22,449.1l0.43,0-0.16-.58Zm66.55-9.67,0.26-.49-0.37-.07ZM410.7,364.31l-0.59.26,0.6,0.22v-0.48Zm50.17-19.19-0.3-.57a1.3,1.3,0,0,0-.39.47,2.86,2.86,0,0,0,.51.68Zm-45.46-60.06-0.62-.19-0.06.78a2.32,2.32,0,0,0,.63-0.15A0.87,0.87,0,0,0,415.41,285.07ZM400,280.85a1.22,1.22,0,0,0-.44.42,6.62,6.62,0,0,0,.37,1.12,1.2,1.2,0,0,0,.43-0.43A6.22,6.22,0,0,0,400,280.85Zm29-60.42,0.56,0.17L429.2,220Zm7.31-75.06a2.12,2.12,0,0,0,.6.15,1,1,0,0,0,.21-0.39,2.13,2.13,0,0,0-.6-0.15A0.94,0.94,0,0,0,436.32,145.38Zm-44.19-40.16,0.53-.3a1.37,1.37,0,0,0-.43-0.38,3.18,3.18,0,0,0-.65.5Zm-1.07-3a0.94,0.94,0,0,0-.15-0.47,2.11,2.11,0,0,0-.67-0.11l0.18,0.82Zm5.46-1.32,0.57-.34a1.44,1.44,0,0,0-.48-0.4,3.25,3.25,0,0,0-.69.55Zm56.94-19a1,1,0,0,0-.38-0.39,1.38,1.38,0,0,0-.58.2,1.29,1.29,0,0,0,.45.38A1.07,1.07,0,0,0,453.47,81.88Z" fill="#272726"/><path d="M387.56,280.18c0.25,7.4.25,7.4,8.36,10,0.67,0.22,1.32.47,2,.71a22.56,22.56,0,0,1-2.17,1.08c-0.82.31-1.7,0.49-2.55,0.72l2.15,0.11c1.2,0.06,2.4.07,3.6,0.18a16.9,16.9,0,0,1,2.08.45,8,8,0,0,0-1.59,1.64c-1,1.92-2.56,3.88-2.69,5.9-0.41,6.46-.24,13-0.37,19.44a27,27,0,0,1-.61,5,4.71,4.71,0,0,1-1.27,1.56c-0.38-.68-1.11-1.37-1.08-2,0.32-8.14.75-16.27,1.16-24.41,0.16-3.19.73-6.35-4.48-5.79-1.82.2-4-1.32-5.74-2.47A5.23,5.23,0,0,1,382.5,289c-0.41-2.28-.19-4.68-0.61-7-1.16-6.24-1.24-6.23,5.6-6a9.47,9.47,0,0,1,.12,1.31l0.1-.17v3.08Z" fill="#272726"/><path d="M457.27,313.32c0.3,1.18.56,2.36,0.9,3.53,0.61,2.12.25,4.54-2.23,3.79-5-1.5-7.24,2-10.29,4.32a17,17,0,0,1-3.74,1.65l2-3.2,4.35-4.26-0.18-1.69-0.06.1,1.86,0.09,4.23-4.33-0.16.12Z" fill="#272726"/><path d="M442.94,309.53c-4.81,3.81-9.6,7.64-14.46,11.39a8,8,0,0,1-2.51.81c0.37-.92.48-2.2,1.17-2.7,4.92-3.58,10-7,15-10.47Z" fill="#272726"/><path d="M387.6,277.4a4.58,4.58,0,0,1,.59-0.4l5.07-2.39a4.59,4.59,0,0,1,.16,1.73c-0.69,2.14-1,4.85-4.45,3.79a4.43,4.43,0,0,0-1.42,0l0.14,0.13q0-1.54,0-3.08Z" fill="#272726"/><path d="M397.55,211.09c-0.24-3.38-.49-6.75-0.67-10.13a5.6,5.6,0,0,1,1.17-.3l0.07,10Z" fill="#272726"/><path d="M399.79,189.56l-1.49,6.89c-0.35-2.33-1-4.68-1-7a69.9,69.9,0,0,1,1.29-8.61Z" fill="#272726"/><path d="M457.38,306.62L454,313.45l0.16-.12h-3l0.12,0.09,5.44-7.51Z" fill="#272726"/><path d="M430.09,327.82c-1.38,1.31-2.29,2.26-3.32,3.05a4.67,4.67,0,0,1-1.36-.88c0.92-1,1.8-2,2.8-2.87C428.38,327,429.08,327.43,430.09,327.82Z" fill="#272726"/><path d="M449.9,317.67l-1.86-.09,3.16-4.15-0.12-.09Z" fill="#272726"/><path d="M444,323.57l-3.1,0,2.26-2.41Z" fill="#272726"/><path d="M456.64,305.91l2-2-1.31,2.75Z" fill="#272726"/><path d="M451.08,298.95l3-1.46C454.16,300.17,453.13,300.61,451.08,298.95Z" fill="#272726"/><path d="M454,297.57l3-3.4Z" fill="#272726"/><path d="M397.24,287.83a3.17,3.17,0,0,1-1.1.9,9.91,9.91,0,0,1-2-.45,2.23,2.23,0,0,1,.86-0.74A12,12,0,0,1,397.24,287.83Z" fill="#272726"/><path d="M448.1,317.48l0.18,1.69-1.77-.66Z" fill="#272726"/><path d="M390.58,413.08l-3-16.07C392.29,401.68,390.43,407.57,390.58,413.08Z" fill="#272726"/><path d="M419.67,502.74c-0.82-2.15-1.69-4.29-2.42-6.47a5,5,0,0,1,.14-1.86,2.82,2.82,0,0,1,1,.79c0.94,2.38,3.87,4.49,1.13,7.43Z" fill="#272726"/><path d="M412.68,481l-1.53.88a4.28,4.28,0,0,1-.69-1.71c0-.38.77-0.71,1.2-1.06Z" fill="#272726"/></svg>
